<?xml version="1.0" encoding="UTF-8"?>
<svg width="1440px" height="1024px" viewBox="0 0 1440 1024" version="1.1" xmlns="http://www.w3.org/2000/svg" xmlns:xlink="http://www.w3.org/1999/xlink">
    <!-- Generator: Sketch 48.2 (47327) - http://www.bohemiancoding.com/sketch -->
    <title>privacy_background</title>
    <desc>Created with Sketch.</desc>
    <defs></defs>
    <g id="Prototyping" stroke="none" stroke-width="1" fill="none" fill-rule="evenodd">
        <g id="privacy_background" fill="#DD6372">
            <g id="Group" transform="translate(-44.000000, 303.000000)">
                <path d="M19.0726589,88.7959408 C8.5470462,-6.55184518 84.3736423,-24.7865872 246.552447,34.0917146 C489.820654,122.409167 901.329991,559.176552 1121.69954,496.938281 C1342.06909,434.700011 1382.1297,165.387308 1436.66692,116.41924 C1473.02506,83.773861 1532.71107,62.7544413 1615.72495,53.3609807 L1615.72495,933.62294 L19.0726589,918.986433 L19.0726589,88.7959408 Z" id="Path-4" fill-opacity="0.1"></path>
                <path d="M0.112243409,631.258174 C98.1765737,474.489743 205.927779,386.761098 323.365859,368.072239 C499.522978,340.038951 544.987361,562.709384 745.700262,512.606801 C946.413163,462.504218 954.456094,153.757912 1123.83889,120.479496 C1236.76076,98.2938847 1408.75039,162.537327 1639.80777,313.209821 L1639.80777,1064.74886 L0.112243409,1064.74886 L0.112243409,631.258174 Z" id="Path-3" fill-opacity="0.5"></path>
            </g>
        </g>
    </g>
</svg>